<?xml version="1.0" encoding="UTF-8"?>
<svg version="1.1" xmlns="http://www.w3.org/2000/svg" width="1184" height="1014">
<path d="M0 0 C36.63 0 73.26 0 111 0 C111 12.21 111 24.42 111 37 C123.21 37 135.42 37 148 37 C148 49.21 148 61.42 148 74 C160.21 74 172.42 74 185 74 C185 61.79 185 49.58 185 37 C197.21 37 209.42 37 222 37 C222 49.21 222 61.42 222 74 C258.63 74 295.26 74 333 74 C333 61.79 333 49.58 333 37 C345.21 37 357.42 37 370 37 C370 24.79 370 12.58 370 0 C406.63 0 443.26 0 481 0 C481 12.21 481 24.42 481 37 C493.21 37 505.42 37 518 37 C518 49.21 518 61.42 518 74 C530.21 74 542.42 74 555 74 C555 86.21 555 98.42 555 111 C542.79 111 530.58 111 518 111 C518 123.21 518 135.42 518 148 C505.79 148 493.58 148 481 148 C481 160.21 481 172.42 481 185 C456.58 185 432.16 185 407 185 C407 197.21 407 209.42 407 222 C431.42 222 455.84 222 481 222 C481 234.21 481 246.42 481 259 C505.42 259 529.84 259 555 259 C555 271.21 555 283.42 555 296 C567.21 296 579.42 296 592 296 C592 320.42 592 344.84 592 370 C604.21 370 616.42 370 629 370 C629 431.05 629 492.1 629 555 C616.79 555 604.58 555 592 555 C592 579.42 592 603.84 592 629 C579.79 629 567.58 629 555 629 C555 653.42 555 677.84 555 703 C542.79 703 530.58 703 518 703 C518 715.21 518 727.42 518 740 C505.79 740 493.58 740 481 740 C481 752.21 481 764.42 481 777 C468.79 777 456.58 777 444 777 C444 789.21 444 801.42 444 814 C407.37 814 370.74 814 333 814 C333 801.79 333 789.58 333 777 C320.79 777 308.58 777 296 777 C296 764.79 296 752.58 296 740 C271.58 740 247.16 740 222 740 C222 752.21 222 764.42 222 777 C209.79 777 197.58 777 185 777 C185 789.21 185 801.42 185 814 C136.16 814 87.32 814 37 814 C37 801.79 37 789.58 37 777 C24.79 777 12.58 777 0 777 C0 764.79 0 752.58 0 740 C-12.21 740 -24.42 740 -37 740 C-37 727.79 -37 715.58 -37 703 C-49.21 703 -61.42 703 -74 703 C-74 678.58 -74 654.16 -74 629 C-86.21 629 -98.42 629 -111 629 C-111 604.58 -111 580.16 -111 555 C-123.21 555 -135.42 555 -148 555 C-148 493.95 -148 432.9 -148 370 C-135.79 370 -123.58 370 -111 370 C-111 345.58 -111 321.16 -111 296 C-98.79 296 -86.58 296 -74 296 C-74 283.79 -74 271.58 -74 259 C-61.79 259 -49.58 259 -37 259 C-37 246.79 -37 234.58 -37 222 C-12.58 222 11.84 222 37 222 C37 209.79 37 197.58 37 185 C24.79 185 12.58 185 0 185 C0 172.79 0 160.58 0 148 C-12.21 148 -24.42 148 -37 148 C-37 135.79 -37 123.58 -37 111 C-49.21 111 -61.42 111 -74 111 C-74 98.79 -74 86.58 -74 74 C-61.79 74 -49.58 74 -37 74 C-37 61.79 -37 49.58 -37 37 C-24.79 37 -12.58 37 0 37 C0 24.79 0 12.58 0 0 Z M148 111 C148 123.21 148 135.42 148 148 C135.79 148 123.58 148 111 148 C111 160.21 111 172.42 111 185 C135.42 185 159.84 185 185 185 C185 160.58 185 136.16 185 111 C172.79 111 160.58 111 148 111 Z M222 111 C222 123.21 222 135.42 222 148 C234.21 148 246.42 148 259 148 C259 172.42 259 196.84 259 222 C271.21 222 283.42 222 296 222 C296 209.79 296 197.58 296 185 C320.42 185 344.84 185 370 185 C370 172.79 370 160.58 370 148 C357.79 148 345.58 148 333 148 C333 135.79 333 123.58 333 111 C296.37 111 259.74 111 222 111 Z M185 185 C185 197.21 185 209.42 185 222 C197.21 222 209.42 222 222 222 C222 209.79 222 197.58 222 185 C209.79 185 197.58 185 185 185 Z M407 518 C407 530.21 407 542.42 407 555 C419.21 555 431.42 555 444 555 C444 542.79 444 530.58 444 518 C431.79 518 419.58 518 407 518 Z " fill="#F44336" transform="translate(333,111)"/>
<path d="M0 0 C36.63 0 73.26 0 111 0 C111 12.21 111 24.42 111 37 C123.21 37 135.42 37 148 37 C148 49.21 148 61.42 148 74 C160.21 74 172.42 74 185 74 C185 86.21 185 98.42 185 111 C172.79 111 160.58 111 148 111 C148 123.21 148 135.42 148 148 C135.79 148 123.58 148 111 148 C111 160.21 111 172.42 111 185 C74.37 185 37.74 185 0 185 C0 172.79 0 160.58 0 148 C-12.21 148 -24.42 148 -37 148 C-37 111.37 -37 74.74 -37 37 C-24.79 37 -12.58 37 0 37 C0 24.79 0 12.58 0 0 Z " fill="#8BC34A" transform="translate(703,111)"/>
<path d="M0 0 C36.63 0 73.26 0 111 0 C111 12.21 111 24.42 111 37 C123.21 37 135.42 37 148 37 C148 73.63 148 110.26 148 148 C135.79 148 123.58 148 111 148 C111 160.21 111 172.42 111 185 C74.37 185 37.74 185 0 185 C0 172.79 0 160.58 0 148 C-12.21 148 -24.42 148 -37 148 C-37 135.79 -37 123.58 -37 111 C-49.21 111 -61.42 111 -74 111 C-74 98.79 -74 86.58 -74 74 C-61.79 74 -49.58 74 -37 74 C-37 61.79 -37 49.58 -37 37 C-24.79 37 -12.58 37 0 37 C0 24.79 0 12.58 0 0 Z " fill="#8BC34A" transform="translate(333,111)"/>
<path d="M0 0 C12.21 0 24.42 0 37 0 C37 12.21 37 24.42 37 37 C73.63 37 110.26 37 148 37 C148 49.21 148 61.42 148 74 C111.37 74 74.74 74 37 74 C37 86.21 37 98.42 37 111 C49.21 111 61.42 111 74 111 C74 135.42 74 159.84 74 185 C86.21 185 98.42 185 111 185 C111 197.21 111 209.42 111 222 C74.37 222 37.74 222 0 222 C0 209.79 0 197.58 0 185 C12.21 185 24.42 185 37 185 C37 172.79 37 160.58 37 148 C24.79 148 12.58 148 0 148 C0 123.58 0 99.16 0 74 C-12.21 74 -24.42 74 -37 74 C-37 61.79 -37 49.58 -37 37 C-24.79 37 -12.58 37 0 37 C0 24.79 0 12.58 0 0 Z " fill="#795548" transform="translate(518,148)"/>
<path d="M0 0 C24.42 0 48.84 0 74 0 C74 12.21 74 24.42 74 37 C86.21 37 98.42 37 111 37 C111 61.42 111 85.84 111 111 C98.79 111 86.58 111 74 111 C74 123.21 74 135.42 74 148 C49.58 148 25.16 148 0 148 C0 135.79 0 123.58 0 111 C-12.21 111 -24.42 111 -37 111 C-37 86.58 -37 62.16 -37 37 C-24.79 37 -12.58 37 0 37 C0 24.79 0 12.58 0 0 Z " fill="#000000" transform="translate(333,592)"/>
<path d="M0 0 C24.42 0 48.84 0 74 0 C74 12.21 74 24.42 74 37 C86.21 37 98.42 37 111 37 C111 61.42 111 85.84 111 111 C98.79 111 86.58 111 74 111 C74 123.21 74 135.42 74 148 C49.58 148 25.16 148 0 148 C0 135.79 0 123.58 0 111 C-12.21 111 -24.42 111 -37 111 C-37 86.58 -37 62.16 -37 37 C-24.79 37 -12.58 37 0 37 C0 24.79 0 12.58 0 0 Z M0 37 C0 49.21 0 61.42 0 74 C12.21 74 24.42 74 37 74 C37 61.79 37 49.58 37 37 C24.79 37 12.58 37 0 37 Z " fill="#000000" transform="translate(740,592)"/>
<path d="M0 0 C12.21 0 24.42 0 37 0 C37 61.05 37 122.1 37 185 C24.79 185 12.58 185 0 185 C0 123.95 0 62.9 0 0 Z " fill="#000000" transform="translate(925,481)"/>
<path d="M0 0 C12.21 0 24.42 0 37 0 C37 61.05 37 122.1 37 185 C24.79 185 12.58 185 0 185 C0 123.95 0 62.9 0 0 Z " fill="#000000" transform="translate(185,481)"/>
<path d="M0 0 C24.42 0 48.84 0 74 0 C74 12.21 74 24.42 74 37 C98.42 37 122.84 37 148 37 C148 49.21 148 61.42 148 74 C111.37 74 74.74 74 37 74 C37 61.79 37 49.58 37 37 C24.79 37 12.58 37 0 37 C0 24.79 0 12.58 0 0 Z " fill="#000000" transform="translate(740,333)"/>
<path d="M0 0 C48.84 0 97.68 0 148 0 C148 12.21 148 24.42 148 37 C99.16 37 50.32 37 0 37 C0 24.79 0 12.58 0 0 Z " fill="#000000" transform="translate(370,888)"/>
<path d="M0 0 C48.84 0 97.68 0 148 0 C148 12.21 148 24.42 148 37 C99.16 37 50.32 37 0 37 C0 24.79 0 12.58 0 0 Z " fill="#000000" transform="translate(370,296)"/>
<path d="M0 0 C36.63 0 73.26 0 111 0 C111 12.21 111 24.42 111 37 C74.37 37 37.74 37 0 37 C0 24.79 0 12.58 0 0 Z " fill="#000000" transform="translate(666,888)"/>
<path d="M0 0 C36.63 0 73.26 0 111 0 C111 12.21 111 24.42 111 37 C74.37 37 37.74 37 0 37 C0 24.79 0 12.58 0 0 Z " fill="#000000" transform="translate(518,703)"/>
<path d="M0 0 C36.63 0 73.26 0 111 0 C111 12.21 111 24.42 111 37 C74.37 37 37.74 37 0 37 C0 24.79 0 12.58 0 0 Z " fill="#000000" transform="translate(518,333)"/>
<path d="M0 0 C36.63 0 73.26 0 111 0 C111 12.21 111 24.42 111 37 C74.37 37 37.74 37 0 37 C0 24.79 0 12.58 0 0 Z " fill="#000000" transform="translate(629,296)"/>
<path d="M0 0 C36.63 0 73.26 0 111 0 C111 12.21 111 24.42 111 37 C74.37 37 37.74 37 0 37 C0 24.79 0 12.58 0 0 Z " fill="#FFFFFF" transform="translate(0,296)"/>
<path d="M0 0 C36.63 0 73.26 0 111 0 C111 12.21 111 24.42 111 37 C74.37 37 37.74 37 0 37 C0 24.79 0 12.58 0 0 Z " fill="#4CAF50" transform="translate(703,259)"/>
<path d="M0 0 C36.63 0 73.26 0 111 0 C111 12.21 111 24.42 111 37 C74.37 37 37.74 37 0 37 C0 24.79 0 12.58 0 0 Z " fill="#4CAF50" transform="translate(333,259)"/>
<path d="M0 0 C36.63 0 73.26 0 111 0 C111 12.21 111 24.42 111 37 C74.37 37 37.74 37 0 37 C0 24.79 0 12.58 0 0 Z " fill="#4CAF50" transform="translate(703,111)"/>
<path d="M0 0 C36.63 0 73.26 0 111 0 C111 12.21 111 24.42 111 37 C74.37 37 37.74 37 0 37 C0 24.79 0 12.58 0 0 Z " fill="#4CAF50" transform="translate(333,111)"/>
<path d="M0 0 C24.42 0 48.84 0 74 0 C74 12.21 74 24.42 74 37 C49.58 37 25.16 37 0 37 C0 24.79 0 12.58 0 0 Z " fill="#000000" transform="translate(555,814)"/>
<path d="M0 0 C12.21 0 24.42 0 37 0 C37 24.42 37 48.84 37 74 C24.79 74 12.58 74 0 74 C0 49.58 0 25.16 0 0 Z " fill="#000000" transform="translate(851,740)"/>
<path d="M0 0 C12.21 0 24.42 0 37 0 C37 24.42 37 48.84 37 74 C24.79 74 12.58 74 0 74 C0 49.58 0 25.16 0 0 Z " fill="#000000" transform="translate(888,666)"/>
<path d="M0 0 C12.21 0 24.42 0 37 0 C37 24.42 37 48.84 37 74 C24.79 74 12.58 74 0 74 C0 49.58 0 25.16 0 0 Z " fill="#000000" transform="translate(222,666)"/>
<path d="M0 0 C12.21 0 24.42 0 37 0 C37 24.42 37 48.84 37 74 C24.79 74 12.58 74 0 74 C0 49.58 0 25.16 0 0 Z " fill="#FFFFFF" transform="translate(814,444)"/>
<path d="M0 0 C12.21 0 24.42 0 37 0 C37 24.42 37 48.84 37 74 C24.79 74 12.58 74 0 74 C0 49.58 0 25.16 0 0 Z " fill="#000000" transform="translate(888,407)"/>
<path d="M0 0 C12.21 0 24.42 0 37 0 C37 24.42 37 48.84 37 74 C24.79 74 12.58 74 0 74 C0 49.58 0 25.16 0 0 Z " fill="#000000" transform="translate(222,407)"/>
<path d="M0 0 C24.42 0 48.84 0 74 0 C74 12.21 74 24.42 74 37 C49.58 37 25.16 37 0 37 C0 24.79 0 12.58 0 0 Z " fill="#000000" transform="translate(814,370)"/>
<path d="M0 0 C24.42 0 48.84 0 74 0 C74 12.21 74 24.42 74 37 C49.58 37 25.16 37 0 37 C0 24.79 0 12.58 0 0 Z " fill="#FFFFFF" transform="translate(703,370)"/>
<path d="M0 0 C24.42 0 48.84 0 74 0 C74 12.21 74 24.42 74 37 C49.58 37 25.16 37 0 37 C0 24.79 0 12.58 0 0 Z " fill="#000000" transform="translate(296,333)"/>
<path d="M0 0 C12.21 0 24.42 0 37 0 C37 12.21 37 24.42 37 37 C24.79 37 12.58 37 0 37 C0 24.79 0 12.58 0 0 Z " fill="#000000" transform="translate(777,851)"/>
<path d="M0 0 C12.21 0 24.42 0 37 0 C37 12.21 37 24.42 37 37 C24.79 37 12.58 37 0 37 C0 24.79 0 12.58 0 0 Z " fill="#000000" transform="translate(629,851)"/>
<path d="M0 0 C12.21 0 24.42 0 37 0 C37 12.21 37 24.42 37 37 C24.79 37 12.58 37 0 37 C0 24.79 0 12.58 0 0 Z " fill="#000000" transform="translate(518,851)"/>
<path d="M0 0 C12.21 0 24.42 0 37 0 C37 12.21 37 24.42 37 37 C24.79 37 12.58 37 0 37 C0 24.79 0 12.58 0 0 Z " fill="#000000" transform="translate(333,851)"/>
<path d="M0 0 C12.21 0 24.42 0 37 0 C37 12.21 37 24.42 37 37 C24.79 37 12.58 37 0 37 C0 24.79 0 12.58 0 0 Z " fill="#000000" transform="translate(814,814)"/>
<path d="M0 0 C12.21 0 24.42 0 37 0 C37 12.21 37 24.42 37 37 C24.79 37 12.58 37 0 37 C0 24.79 0 12.58 0 0 Z " fill="#000000" transform="translate(296,814)"/>
<path d="M0 0 C12.21 0 24.42 0 37 0 C37 12.21 37 24.42 37 37 C24.79 37 12.58 37 0 37 C0 24.79 0 12.58 0 0 Z " fill="#000000" transform="translate(259,777)"/>
<path d="M0 0 C12.21 0 24.42 0 37 0 C37 12.21 37 24.42 37 37 C24.79 37 12.58 37 0 37 C0 24.79 0 12.58 0 0 Z " fill="#000000" transform="translate(629,666)"/>
<path d="M0 0 C12.21 0 24.42 0 37 0 C37 12.21 37 24.42 37 37 C24.79 37 12.58 37 0 37 C0 24.79 0 12.58 0 0 Z " fill="#000000" transform="translate(481,666)"/>
<path d="M0 0 C12.21 0 24.42 0 37 0 C37 12.21 37 24.42 37 37 C24.79 37 12.58 37 0 37 C0 24.79 0 12.58 0 0 Z " fill="#FFFFFF" transform="translate(333,629)"/>
<path d="M0 0 C12.21 0 24.42 0 37 0 C37 12.21 37 24.42 37 37 C24.79 37 12.58 37 0 37 C0 24.79 0 12.58 0 0 Z " fill="#FFFFFF" transform="translate(1110,481)"/>
<path d="M0 0 C12.21 0 24.42 0 37 0 C37 12.21 37 24.42 37 37 C24.79 37 12.58 37 0 37 C0 24.79 0 12.58 0 0 Z " fill="#FFFFFF" transform="translate(1073,407)"/>
<path d="M0 0 C12.21 0 24.42 0 37 0 C37 12.21 37 24.42 37 37 C24.79 37 12.58 37 0 37 C0 24.79 0 12.58 0 0 Z " fill="#FFFFFF" transform="translate(777,407)"/>
<path d="M0 0 C12.21 0 24.42 0 37 0 C37 12.21 37 24.42 37 37 C24.79 37 12.58 37 0 37 C0 24.79 0 12.58 0 0 Z " fill="#F44336" transform="translate(777,370)"/>
<path d="M0 0 C12.21 0 24.42 0 37 0 C37 12.21 37 24.42 37 37 C24.79 37 12.58 37 0 37 C0 24.79 0 12.58 0 0 Z " fill="#000000" transform="translate(259,370)"/>
<path d="M0 0 C12.21 0 24.42 0 37 0 C37 12.21 37 24.42 37 37 C24.79 37 12.58 37 0 37 C0 24.79 0 12.58 0 0 Z " fill="#4CAF50" transform="translate(814,222)"/>
<path d="M0 0 C12.21 0 24.42 0 37 0 C37 12.21 37 24.42 37 37 C24.79 37 12.58 37 0 37 C0 24.79 0 12.58 0 0 Z " fill="#4CAF50" transform="translate(666,222)"/>
<path d="M0 0 C12.21 0 24.42 0 37 0 C37 12.21 37 24.42 37 37 C24.79 37 12.58 37 0 37 C0 24.79 0 12.58 0 0 Z " fill="#4CAF50" transform="translate(444,222)"/>
<path d="M0 0 C12.21 0 24.42 0 37 0 C37 12.21 37 24.42 37 37 C24.79 37 12.58 37 0 37 C0 24.79 0 12.58 0 0 Z " fill="#4CAF50" transform="translate(296,222)"/>
<path d="M0 0 C12.21 0 24.42 0 37 0 C37 12.21 37 24.42 37 37 C24.79 37 12.58 37 0 37 C0 24.79 0 12.58 0 0 Z " fill="#4CAF50" transform="translate(851,185)"/>
<path d="M0 0 C12.21 0 24.42 0 37 0 C37 12.21 37 24.42 37 37 C24.79 37 12.58 37 0 37 C0 24.79 0 12.58 0 0 Z " fill="#4CAF50" transform="translate(259,185)"/>
<path d="M0 0 C12.21 0 24.42 0 37 0 C37 12.21 37 24.42 37 37 C24.79 37 12.58 37 0 37 C0 24.79 0 12.58 0 0 Z " fill="#4CAF50" transform="translate(814,148)"/>
<path d="M0 0 C12.21 0 24.42 0 37 0 C37 12.21 37 24.42 37 37 C24.79 37 12.58 37 0 37 C0 24.79 0 12.58 0 0 Z " fill="#4CAF50" transform="translate(666,148)"/>
<path d="M0 0 C12.21 0 24.42 0 37 0 C37 12.21 37 24.42 37 37 C24.79 37 12.58 37 0 37 C0 24.79 0 12.58 0 0 Z " fill="#4CAF50" transform="translate(444,148)"/>
<path d="M0 0 C12.21 0 24.42 0 37 0 C37 12.21 37 24.42 37 37 C24.79 37 12.58 37 0 37 C0 24.79 0 12.58 0 0 Z " fill="#4CAF50" transform="translate(296,148)"/>
</svg>
