<?xml version="1.0" encoding="UTF-8"?>
<svg version="1.1" xmlns="http://www.w3.org/2000/svg" width="1021" height="1021">
<path d="M0 0 C36.96 0 73.92 0 112 0 C112 12.21 112 24.42 112 37 C124.21 37 136.42 37 149 37 C149 49.21 149 61.42 149 74 C160.88 74 172.76 74 185 74 C185 61.79 185 49.58 185 37 C197.54 37 210.08 37 223 37 C223 49.21 223 61.42 223 74 C259.3 74 295.6 74 333 74 C333 61.79 333 49.58 333 37 C345.21 37 357.42 37 370 37 C370 24.79 370 12.58 370 0 C406.96 0 443.92 0 482 0 C482 12.21 482 24.42 482 37 C494.21 37 506.42 37 519 37 C519 49.21 519 61.42 519 74 C531.21 74 543.42 74 556 74 C556 86.21 556 98.42 556 111 C543.79 111 531.58 111 519 111 C519 123.21 519 135.42 519 148 C506.79 148 494.58 148 482 148 C482 160.21 482 172.42 482 185 C457.58 185 433.16 185 408 185 C408 197.21 408 209.42 408 222 C432.42 222 456.84 222 482 222 C482 234.21 482 246.42 482 259 C506.42 259 530.84 259 556 259 C556 271.21 556 283.42 556 296 C568.21 296 580.42 296 593 296 C593 320.42 593 344.84 593 370 C605.21 370 617.42 370 630 370 C630 431.05 630 492.1 630 555 C617.79 555 605.58 555 593 555 C593 579.42 593 603.84 593 629 C580.79 629 568.58 629 556 629 C556 653.42 556 677.84 556 703 C543.79 703 531.58 703 519 703 C519 715.21 519 727.42 519 740 C506.79 740 494.58 740 482 740 C482 752.21 482 764.42 482 777 C469.79 777 457.58 777 445 777 C445 789.21 445 801.42 445 814 C408.04 814 371.08 814 333 814 C333 801.79 333 789.58 333 777 C320.79 777 308.58 777 296 777 C296 764.79 296 752.58 296 740 C271.91 740 247.82 740 223 740 C223 752.21 223 764.42 223 777 C210.79 777 198.58 777 186 777 C186 789.21 186 801.42 186 814 C136.83 814 87.66 814 37 814 C37 801.79 37 789.58 37 777 C24.79 777 12.58 777 0 777 C0 764.79 0 752.58 0 740 C-12.21 740 -24.42 740 -37 740 C-37 727.79 -37 715.58 -37 703 C-49.21 703 -61.42 703 -74 703 C-74 678.58 -74 654.16 -74 629 C-86.21 629 -98.42 629 -111 629 C-111 604.58 -111 580.16 -111 555 C-123.21 555 -135.42 555 -148 555 C-148 493.95 -148 432.9 -148 370 C-135.79 370 -123.58 370 -111 370 C-111 345.58 -111 321.16 -111 296 C-98.79 296 -86.58 296 -74 296 C-74 283.79 -74 271.58 -74 259 C-61.79 259 -49.58 259 -37 259 C-37 246.79 -37 234.58 -37 222 C-12.58 222 11.84 222 37 222 C37 209.79 37 197.58 37 185 C24.79 185 12.58 185 0 185 C0 172.79 0 160.58 0 148 C-12.21 148 -24.42 148 -37 148 C-37 135.79 -37 123.58 -37 111 C-49.21 111 -61.42 111 -74 111 C-74 98.79 -74 86.58 -74 74 C-61.79 74 -49.58 74 -37 74 C-37 61.79 -37 49.58 -37 37 C-24.79 37 -12.58 37 0 37 C0 24.79 0 12.58 0 0 Z M149 111 C149 123.21 149 135.42 149 148 C136.79 148 124.58 148 112 148 C112 160.21 112 172.42 112 185 C136.09 185 160.18 185 185 185 C185 160.58 185 136.16 185 111 C173.12 111 161.24 111 149 111 Z M223 111 C223 123.21 223 135.42 223 148 C235.21 148 247.42 148 260 148 C260 172.42 260 196.84 260 222 C271.88 222 283.76 222 296 222 C296 209.79 296 197.58 296 185 C320.42 185 344.84 185 370 185 C370 172.79 370 160.58 370 148 C357.79 148 345.58 148 333 148 C333 135.79 333 123.58 333 111 C296.7 111 260.4 111 223 111 Z M186 185 C186 197.21 186 209.42 186 222 C197.88 222 209.76 222 222 222 C222 209.79 222 197.58 222 185 C210.12 185 198.24 185 186 185 Z M408 518 C408 530.21 408 542.42 408 555 C419.88 555 431.76 555 444 555 C444 542.79 444 530.58 444 518 C432.12 518 420.24 518 408 518 Z " fill="#F34235" transform="translate(259,111)"/>
<path d="M0 0 C0.33 0 0.66 0 1 0 C1 36.63 1 73.26 1 111 C-47.84 111 -96.68 111 -147 111 C-147 123.21 -147 135.42 -147 148 C-171.42 148 -195.84 148 -221 148 C-221 160.21 -221 172.42 -221 185 C-233.21 185 -245.42 185 -258 185 C-258 209.42 -258 233.84 -258 259 C-270.21 259 -282.42 259 -295 259 C-295 320.05 -295 381.1 -295 444 C-282.79 444 -270.58 444 -258 444 C-258 480.63 -258 517.26 -258 555 C-245.79 555 -233.58 555 -221 555 C-221 567.21 -221 579.42 -221 592 C-208.79 592 -196.58 592 -184 592 C-184 604.21 -184 616.42 -184 629 C-171.79 629 -159.58 629 -147 629 C-147 641.21 -147 653.42 -147 666 C-98.16 666 -49.32 666 1 666 C1 678.21 1 690.42 1 703 C-48.17 703 -97.34 703 -148 703 C-148 690.79 -148 678.58 -148 666 C-160.21 666 -172.42 666 -185 666 C-185 653.79 -185 641.58 -185 629 C-197.21 629 -209.42 629 -222 629 C-222 616.79 -222 604.58 -222 592 C-234.21 592 -246.42 592 -259 592 C-259 567.58 -259 543.16 -259 518 C-271.21 518 -283.42 518 -296 518 C-296 493.58 -296 469.16 -296 444 C-308.21 444 -320.42 444 -333 444 C-333 382.95 -333 321.9 -333 259 C-320.79 259 -308.58 259 -296 259 C-296 234.58 -296 210.16 -296 185 C-283.79 185 -271.58 185 -259 185 C-259 172.79 -259 160.58 -259 148 C-246.79 148 -234.58 148 -222 148 C-222 135.79 -222 123.58 -222 111 C-197.58 111 -173.16 111 -148 111 C-148 98.79 -148 86.58 -148 74 C-99.16 74 -50.32 74 0 74 C0 49.58 0 25.16 0 0 Z " fill="#010000" transform="translate(444,222)"/>
<path d="M0 0 C36.96 0 73.92 0 112 0 C112 12.21 112 24.42 112 37 C124.21 37 136.42 37 149 37 C149 73.63 149 110.26 149 148 C136.79 148 124.58 148 112 148 C112 160.21 112 172.42 112 185 C75.04 185 38.08 185 0 185 C0 172.79 0 160.58 0 148 C-12.21 148 -24.42 148 -37 148 C-37 135.79 -37 123.58 -37 111 C-49.21 111 -61.42 111 -74 111 C-74 98.79 -74 86.58 -74 74 C-61.79 74 -49.58 74 -37 74 C-37 61.79 -37 49.58 -37 37 C-24.79 37 -12.58 37 0 37 C0 24.79 0 12.58 0 0 Z " fill="#8AC24A" transform="translate(259,111)"/>
<path d="M0 0 C36.96 0 73.92 0 112 0 C112 12.21 112 24.42 112 37 C124.21 37 136.42 37 149 37 C149 49.21 149 61.42 149 74 C161.21 74 173.42 74 186 74 C186 86.21 186 98.42 186 111 C173.79 111 161.58 111 149 111 C149 123.21 149 135.42 149 148 C136.79 148 124.58 148 112 148 C112 160.21 112 172.42 112 185 C75.37 185 38.74 185 1 185 C1 172.79 1 160.58 1 148 C-11.21 148 -23.42 148 -36 148 C-36 111.37 -36 74.74 -36 37 C-24.12 37 -12.24 37 0 37 C0 24.79 0 12.58 0 0 Z " fill="#8AC24A" transform="translate(629,111)"/>
<path d="M0 0 C12.54 0 25.08 0 38 0 C38 12.21 38 24.42 38 37 C74.3 37 110.6 37 148 37 C148 24.79 148 12.58 148 0 C148.33 0 148.66 0 149 0 C149 36.63 149 73.26 149 111 C148.67 111 148.34 111 148 111 C148 98.79 148 86.58 148 74 C111.7 74 75.4 74 38 74 C38 86.21 38 98.42 38 111 C50.21 111 62.42 111 75 111 C75 135.42 75 159.84 75 185 C86.88 185 98.76 185 111 185 C111 172.79 111 160.58 111 148 C135.42 148 159.84 148 185 148 C185 135.79 185 123.58 185 111 C185.33 111 185.66 111 186 111 C186 123.21 186 135.42 186 148 C198.21 148 210.42 148 223 148 C223 160.21 223 172.42 223 185 C186.37 185 149.74 185 112 185 C112 197.21 112 209.42 112 222 C75.37 222 38.74 222 1 222 C1 209.79 1 197.58 1 185 C12.88 185 24.76 185 37 185 C37 172.79 37 160.58 37 148 C25.12 148 13.24 148 1 148 C1 123.58 1 99.16 1 74 C-11.21 74 -23.42 74 -36 74 C-36 61.79 -36 49.58 -36 37 C-24.12 37 -12.24 37 0 37 C0 24.79 0 12.58 0 0 Z " fill="#775447" transform="translate(444,148)"/>
<path d="M0 0 C24.42 0 48.84 0 74 0 C74 12.21 74 24.42 74 37 C86.21 37 98.42 37 111 37 C111 61.42 111 85.84 111 111 C98.79 111 86.58 111 74 111 C74 123.21 74 135.42 74 148 C49.58 148 25.16 148 0 148 C0 135.79 0 123.58 0 111 C-12.21 111 -24.42 111 -37 111 C-37 86.58 -37 62.16 -37 37 C-24.79 37 -12.58 37 0 37 C0 24.79 0 12.58 0 0 Z M0 37 C0 49.21 0 61.42 0 74 C11.88 74 23.76 74 36 74 C36 61.79 36 49.58 36 37 C24.12 37 12.24 37 0 37 Z " fill="#000000" transform="translate(667,592)"/>
<path d="M0 0 C24.42 0 48.84 0 74 0 C74 12.21 74 24.42 74 37 C86.21 37 98.42 37 111 37 C111 61.42 111 85.84 111 111 C98.79 111 86.58 111 74 111 C74 123.21 74 135.42 74 148 C49.58 148 25.16 148 0 148 C0 135.79 0 123.58 0 111 C-12.21 111 -24.42 111 -37 111 C-37 86.58 -37 62.16 -37 37 C-25.12 37 -13.24 37 -1 37 C-1 49.21 -1 61.42 -1 74 C11.54 74 24.08 74 37 74 C37 61.79 37 49.58 37 37 C24.79 37 12.58 37 0 37 C0 24.79 0 12.58 0 0 Z " fill="#000000" transform="translate(260,592)"/>
<path d="M0 0 C36.96 0 73.92 0 112 0 C112 12.21 112 24.42 112 37 C75.37 37 38.74 37 1 37 C1 49.21 1 61.42 1 74 C-11.21 74 -23.42 74 -36 74 C-36 86.21 -36 98.42 -36 111 C-23.79 111 -11.58 111 1 111 C1 123.21 1 135.42 1 148 C37.63 148 74.26 148 112 148 C112 160.21 112 172.42 112 185 C75.04 185 38.08 185 0 185 C0 172.79 0 160.58 0 148 C-12.21 148 -24.42 148 -37 148 C-37 135.79 -37 123.58 -37 111 C-49.21 111 -61.42 111 -74 111 C-74 98.79 -74 86.58 -74 74 C-61.79 74 -49.58 74 -37 74 C-37 61.79 -37 49.58 -37 37 C-24.79 37 -12.58 37 0 37 C0 24.79 0 12.58 0 0 Z " fill="#4BAD4F" transform="translate(259,111)"/>
<path d="M0 0 C0.33 0 0.66 0 1 0 C1 12.21 1 24.42 1 37 C13.21 37 25.42 37 38 37 C38 49.21 38 61.42 38 74 C1.37 74 -35.26 74 -73 74 C-73 86.21 -73 98.42 -73 111 C-109.63 111 -146.26 111 -184 111 C-184 98.79 -184 86.58 -184 74 C-172.12 74 -160.24 74 -148 74 C-148 61.79 -148 49.58 -148 37 C-147.67 37 -147.34 37 -147 37 C-147 49.21 -147 61.42 -147 74 C-122.91 74 -98.82 74 -74 74 C-74 61.79 -74 49.58 -74 37 C-49.58 37 -25.16 37 0 37 C0 24.79 0 12.58 0 0 Z " fill="#000000" transform="translate(629,259)"/>
<path d="M0 0 C24.42 0 48.84 0 74 0 C74 12.21 74 24.42 74 37 C86.21 37 98.42 37 111 37 C111 49.21 111 61.42 111 74 C147.63 74 184.26 74 222 74 C222 86.21 222 98.42 222 111 C185.04 111 148.08 111 110 111 C110 98.79 110 86.58 110 74 C97.79 74 85.58 74 73 74 C73 61.79 73 49.58 73 37 C48.91 37 24.82 37 0 37 C0 24.79 0 12.58 0 0 Z " fill="#000000" transform="translate(482,814)"/>
<path d="M0 0 C12.21 0 24.42 0 37 0 C37 61.05 37 122.1 37 185 C24.79 185 12.58 185 0 185 C0 123.95 0 62.9 0 0 Z " fill="#000000" transform="translate(852,481)"/>
<path d="M0 0 C36.96 0 73.92 0 112 0 C112 12.21 112 24.42 112 37 C75.37 37 38.74 37 1 37 C1 49.21 1 61.42 1 74 C-11.21 74 -23.42 74 -36 74 C-36 61.79 -36 49.58 -36 37 C-24.12 37 -12.24 37 0 37 C0 24.79 0 12.58 0 0 Z " fill="#4BAD4F" transform="translate(629,111)"/>
<path d="M0 0 C24.42 0 48.84 0 74 0 C74 12.21 74 24.42 74 37 C85.88 37 97.76 37 110 37 C110 49.21 110 61.42 110 74 C97.79 74 85.58 74 73 74 C73 61.79 73 49.58 73 37 C48.91 37 24.82 37 0 37 C0 24.79 0 12.58 0 0 Z " fill="#FEFDFD" transform="translate(630,370)"/>
<path d="M0 0 C36.63 0 73.26 0 111 0 C111 12.21 111 24.42 111 37 C74.37 37 37.74 37 0 37 C0 24.79 0 12.58 0 0 Z " fill="#4BAE4F" transform="translate(630,259)"/>
<path d="M0 0 C36.3 0 72.6 0 110 0 C110 12.21 110 24.42 110 37 C73.7 37 37.4 37 0 37 C0 24.79 0 12.58 0 0 Z " fill="#000000" transform="translate(445,703)"/>
<path d="M0 0 C12.21 0 24.42 0 37 0 C37 24.42 37 48.84 37 74 C24.79 74 12.58 74 0 74 C0 49.58 0 25.16 0 0 Z " fill="#000000" transform="translate(778,740)"/>
<path d="M0 0 C12.21 0 24.42 0 37 0 C37 24.42 37 48.84 37 74 C24.79 74 12.58 74 0 74 C0 49.58 0 25.16 0 0 Z " fill="#000000" transform="translate(815,666)"/>
<path d="M0 0 C12.21 0 24.42 0 37 0 C37 24.42 37 48.84 37 74 C24.79 74 12.58 74 0 74 C0 49.58 0 25.16 0 0 Z " fill="#FEFDFC" transform="translate(741,444)"/>
<path d="M0 0 C12.21 0 24.42 0 37 0 C37 24.42 37 48.84 37 74 C24.79 74 12.58 74 0 74 C0 49.58 0 25.16 0 0 Z " fill="#000000" transform="translate(815,407)"/>
<path d="M0 0 C24.42 0 48.84 0 74 0 C74 12.21 74 24.42 74 37 C49.58 37 25.16 37 0 37 C0 24.79 0 12.58 0 0 Z " fill="#000000" transform="translate(741,370)"/>
<path d="M0 0 C24.42 0 48.84 0 74 0 C74 12.21 74 24.42 74 37 C49.58 37 25.16 37 0 37 C0 24.79 0 12.58 0 0 Z " fill="#000000" transform="translate(667,333)"/>
<path d="M0 0 C12.54 0 25.08 0 38 0 C38 12.21 38 24.42 38 37 C25.46 37 12.92 37 0 37 C0 24.79 0 12.58 0 0 Z " fill="#FCFCFC" transform="translate(0,296)"/>
<path d="M0 0 C12.21 0 24.42 0 37 0 C37 12.21 37 24.42 37 37 C24.79 37 12.58 37 0 37 C0 24.79 0 12.58 0 0 Z " fill="#000000" transform="translate(704,851)"/>
<path d="M0 0 C12.21 0 24.42 0 37 0 C37 12.21 37 24.42 37 37 C24.79 37 12.58 37 0 37 C0 24.79 0 12.58 0 0 Z " fill="#000000" transform="translate(445,851)"/>
<path d="M0 0 C12.21 0 24.42 0 37 0 C37 12.21 37 24.42 37 37 C24.79 37 12.58 37 0 37 C0 24.79 0 12.58 0 0 Z " fill="#000000" transform="translate(741,814)"/>
<path d="M0 0 C12.21 0 24.42 0 37 0 C37 12.21 37 24.42 37 37 C24.79 37 12.58 37 0 37 C0 24.79 0 12.58 0 0 Z " fill="#020000" transform="translate(556,666)"/>
<path d="M0 0 C12.21 0 24.42 0 37 0 C37 12.21 37 24.42 37 37 C24.79 37 12.58 37 0 37 C0 24.79 0 12.58 0 0 Z " fill="#FCFCFC" transform="translate(260,629)"/>
<path d="M0 0 C12.21 0 24.42 0 37 0 C37 12.21 37 24.42 37 37 C24.79 37 12.58 37 0 37 C0 24.79 0 12.58 0 0 Z " fill="#4BAD4F" transform="translate(741,222)"/>
<path d="M0 0 C12.21 0 24.42 0 37 0 C37 12.21 37 24.42 37 37 C24.79 37 12.58 37 0 37 C0 24.79 0 12.58 0 0 Z " fill="#4CAF4F" transform="translate(593,222)"/>
<path d="M0 0 C12.21 0 24.42 0 37 0 C37 12.21 37 24.42 37 37 C24.79 37 12.58 37 0 37 C0 24.79 0 12.58 0 0 Z " fill="#4BAD4F" transform="translate(371,222)"/>
<path d="M0 0 C12.21 0 24.42 0 37 0 C37 12.21 37 24.42 37 37 C24.79 37 12.58 37 0 37 C0 24.79 0 12.58 0 0 Z " fill="#4BAD4F" transform="translate(778,185)"/>
<path d="M0 0 C12.21 0 24.42 0 37 0 C37 12.21 37 24.42 37 37 C24.79 37 12.58 37 0 37 C0 24.79 0 12.58 0 0 Z " fill="#4BAD4F" transform="translate(741,148)"/>
<path d="M0 0 C12.21 0 24.42 0 37 0 C37 12.21 37 24.42 37 37 C24.79 37 12.58 37 0 37 C0 24.79 0 12.58 0 0 Z " fill="#4BAD4F" transform="translate(371,148)"/>
<path d="M0 0 C11.88 0 23.76 0 36 0 C36 12.21 36 24.42 36 37 C24.12 37 12.24 37 0 37 C0 24.79 0 12.58 0 0 Z " fill="#000000" transform="translate(408,666)"/>
<path d="M0 0 C7.26 0 14.52 0 22 0 C22 12.21 22 24.42 22 37 C14.74 37 7.48 37 0 37 C0 24.79 0 12.58 0 0 Z " fill="#F8F8F8" transform="translate(999,407)"/>
</svg>
